<?xml version="1.0" encoding="UTF-8"?>
<svg version="1.1" xmlns="http://www.w3.org/2000/svg" width="128" height="128">
<path d="M0 0 C0.99 0 1.98 0 3 0 C3.57161865 1.03833984 3.57161865 1.03833984 4.15478516 2.09765625 C12.2838849 16.84515957 20.54020131 31.49740347 29.07421875 46.015625 C29.82904541 47.30436523 29.82904541 47.30436523 30.59912109 48.61914062 C31.4839753 50.12299183 32.37654435 51.62235411 33.27978516 53.11523438 C36 57.67633049 36 57.67633049 36 61 C13.23 61 -9.54 61 -33 61 C-32.09193485 56.45967425 -31.15373524 54.12979985 -28.89453125 50.23046875 C-28.24693848 49.10511719 -27.5993457 47.97976562 -26.93212891 46.8203125 C-26.22573808 45.60928624 -25.51919168 44.39835072 -24.8125 43.1875 C-24.09234542 41.94174758 -23.3727882 40.69564966 -22.65380859 39.44921875 C-20.44579085 35.6270118 -18.2241763 31.81282054 -16 28 C-15.30157176 26.80160862 -14.60316626 25.603204 -13.90478516 24.40478516 C-8.78068757 15.6165284 -8.78068757 15.6165284 -6.34301758 11.46557617 C-5.7992749 10.53849854 -5.25553223 9.6114209 -4.6953125 8.65625 C-4.22109863 7.84994141 -3.74688477 7.04363281 -3.25830078 6.21289062 C-2.09779962 4.17199375 -1.0269935 2.11067367 0 0 Z " fill="#F7B93E" transform="translate(60,66)"/>
<path d="M0 0 C22.77 0 45.54 0 69 0 C65.01125537 7.97748926 60.9753414 15.67063557 56.4375 23.3125 C49.48012179 35.12783703 42.71057164 47.04310412 36 59 C35.01 59 34.02 59 33 59 C32.6189209 58.30777344 32.2378418 57.61554687 31.84521484 56.90234375 C30.02483739 53.59988426 28.20122874 50.29922633 26.375 47 C26.04108246 46.39674896 25.70716492 45.79349792 25.36312866 45.17196655 C19.90366989 35.32108709 14.30810731 25.56103485 8.56982422 15.86914062 C8.02729004 14.94939453 7.48475586 14.02964844 6.92578125 13.08203125 C6.45567627 12.29030518 5.98557129 11.4985791 5.5012207 10.68286133 C3.54535513 7.18749512 1.79125627 3.58251253 0 0 Z " fill="#CB5971" transform="translate(27,5)"/>
<path d="M0 0 C1.32 0.33 2.64 0.66 4 1 C3.08203125 2.65234375 2.1640625 4.3046875 1.24609375 5.95703125 C0.64563232 7.03791016 0.0451709 8.11878906 -0.57348633 9.23242188 C-1.91034532 11.63879299 -3.24744871 14.04502809 -4.5847168 16.45117188 C-7.79757802 22.23253218 -11.00920861 28.01455708 -14.21388245 33.80046082 C-15.58351367 36.2731174 -16.95406223 38.74526494 -18.32467651 41.21737671 C-18.98132555 42.40236358 -19.63751728 43.58760398 -20.29324341 44.77310181 C-21.21126572 46.43270838 -22.13098602 48.09137536 -23.05078125 49.75 C-23.57325439 50.69359375 -24.09572754 51.6371875 -24.6340332 52.609375 C-25.68499329 54.44869603 -26.82492306 56.23738458 -28 58 C-27.65592275 61.48907635 -26.61073709 64.06810003 -24.83984375 67.0625 C-24.15535156 68.2369165 -24.15535156 68.2369165 -23.45703125 69.43505859 C-22.95558594 70.28148926 -22.45414063 71.12791992 -21.9375 72 C-16.66245923 81.05668355 -11.54507531 90.18909093 -6.5 99.375 C-5.47899682 101.23352968 -4.45792228 103.09201956 -3.43638611 104.95025635 C-2.50240957 106.64969158 -1.56954333 108.34973687 -0.63671875 110.04980469 C0.70158201 112.46209979 2.07074738 114.84873173 3.46875 117.2265625 C5 120 5 120 5 122 C3.68 122 2.36 122 1 122 C0.64550781 121.25621094 0.29101562 120.51242188 -0.07421875 119.74609375 C-3.83510372 112.03309237 -7.89001987 104.52572266 -12.125 97.0625 C-12.67397949 96.0938501 -13.22295898 95.1252002 -13.78857422 94.12719727 C-16.74265222 88.92976815 -19.72399977 83.74932619 -22.73046875 78.58203125 C-23.33036621 77.54232178 -23.93026367 76.5026123 -24.54833984 75.43139648 C-25.70231915 73.43213452 -26.86507486 71.43790623 -28.03759766 69.44946289 C-28.55757324 68.54574951 -29.07754883 67.64203613 -29.61328125 66.7109375 C-30.07516846 65.91993652 -30.53705566 65.12893555 -31.01293945 64.31396484 C-32.16727538 61.60785653 -32.3421997 59.91685873 -32 57 C-31.06054688 54.78125 -31.06054688 54.78125 -29.71875 52.5 C-29.2139209 51.62649902 -28.7090918 50.75299805 -28.18896484 49.85302734 C-27.63160645 48.91152832 -27.07424805 47.9700293 -26.5 47 C-25.31334464 44.95153911 -24.1285405 42.90200501 -22.9453125 40.8515625 C-22.31012695 39.75489258 -21.67494141 38.65822266 -21.02050781 37.52832031 C-17.37698173 31.19732012 -13.88798543 24.77898907 -10.375 18.375 C-9.34855195 16.5047425 -8.32173318 14.63469343 -7.29373169 12.76528931 C-6.39581566 11.13233238 -5.49936886 9.49856781 -4.60302734 7.86474609 C-3.11784735 5.21060323 -1.58030286 2.59838833 0 0 Z " fill="#F6B23B" transform="translate(120,5)"/>
<path d="M0 0 C1.32 0.33 2.64 0.66 4 1 C3.08203125 2.65234375 2.1640625 4.3046875 1.24609375 5.95703125 C0.64563232 7.03791016 0.0451709 8.11878906 -0.57348633 9.23242188 C-1.91034532 11.63879299 -3.24744871 14.04502809 -4.5847168 16.45117188 C-7.79757802 22.23253218 -11.00920861 28.01455708 -14.21388245 33.80046082 C-15.58351367 36.2731174 -16.95406223 38.74526494 -18.32467651 41.21737671 C-18.98132555 42.40236358 -19.63751728 43.58760398 -20.29324341 44.77310181 C-21.21126572 46.43270838 -22.13098602 48.09137536 -23.05078125 49.75 C-23.57325439 50.69359375 -24.09572754 51.6371875 -24.6340332 52.609375 C-25.68499329 54.44869603 -26.82492306 56.23738458 -28 58 C-27.65592275 61.48907635 -26.61073709 64.06810003 -24.83984375 67.0625 C-24.15535156 68.2369165 -24.15535156 68.2369165 -23.45703125 69.43505859 C-22.95558594 70.28148926 -22.45414063 71.12791992 -21.9375 72 C-16.66245923 81.05668355 -11.54507531 90.18909093 -6.5 99.375 C-5.47899682 101.23352968 -4.45792228 103.09201956 -3.43638611 104.95025635 C-2.50240957 106.64969158 -1.56954333 108.34973687 -0.63671875 110.04980469 C0.70158201 112.46209979 2.07074738 114.84873173 3.46875 117.2265625 C5 120 5 120 5 122 C3.68 122 2.36 122 1 122 C0.64550781 121.25621094 0.29101562 120.51242188 -0.07421875 119.74609375 C-3.83510372 112.03309237 -7.89001987 104.52572266 -12.125 97.0625 C-12.67397949 96.0938501 -13.22295898 95.1252002 -13.78857422 94.12719727 C-16.74265222 88.92976815 -19.72399977 83.74932619 -22.73046875 78.58203125 C-23.33036621 77.54232178 -23.93026367 76.5026123 -24.54833984 75.43139648 C-25.70231915 73.43213452 -26.86507486 71.43790623 -28.03759766 69.44946289 C-28.55757324 68.54574951 -29.07754883 67.64203613 -29.61328125 66.7109375 C-30.07516846 65.91993652 -30.53705566 65.12893555 -31.01293945 64.31396484 C-32.16727538 61.60785653 -32.3421997 59.91685873 -32 57 C-31.06054688 54.78125 -31.06054688 54.78125 -29.71875 52.5 C-29.2139209 51.62649902 -28.7090918 50.75299805 -28.18896484 49.85302734 C-27.63160645 48.91152832 -27.07424805 47.9700293 -26.5 47 C-25.31334464 44.95153911 -24.1285405 42.90200501 -22.9453125 40.8515625 C-22.31012695 39.75489258 -21.67494141 38.65822266 -21.02050781 37.52832031 C-17.37698173 31.19732012 -13.88798543 24.77898907 -10.375 18.375 C-9.34855195 16.5047425 -8.32173318 14.63469343 -7.29373169 12.76528931 C-6.39581566 11.13233238 -5.49936886 9.49856781 -4.60302734 7.86474609 C-3.11784735 5.21060323 -1.58030286 2.59838833 0 0 Z " fill="#F6B23B" transform="translate(115,5)"/>
<path d="M0 0 C1.32 0.33 2.64 0.66 4 1 C3.08203125 2.65234375 2.1640625 4.3046875 1.24609375 5.95703125 C0.64563232 7.03791016 0.0451709 8.11878906 -0.57348633 9.23242188 C-1.91034532 11.63879299 -3.24744871 14.04502809 -4.5847168 16.45117188 C-7.79757802 22.23253218 -11.00920861 28.01455708 -14.21388245 33.80046082 C-15.58351367 36.2731174 -16.95406223 38.74526494 -18.32467651 41.21737671 C-18.98132555 42.40236358 -19.63751728 43.58760398 -20.29324341 44.77310181 C-21.21126572 46.43270838 -22.13098602 48.09137536 -23.05078125 49.75 C-23.57325439 50.69359375 -24.09572754 51.6371875 -24.6340332 52.609375 C-25.68499329 54.44869603 -26.82492306 56.23738458 -28 58 C-27.65592275 61.48907635 -26.61073709 64.06810003 -24.83984375 67.0625 C-24.15535156 68.2369165 -24.15535156 68.2369165 -23.45703125 69.43505859 C-22.95558594 70.28148926 -22.45414063 71.12791992 -21.9375 72 C-16.66245923 81.05668355 -11.54507531 90.18909093 -6.5 99.375 C-5.47899682 101.23352968 -4.45792228 103.09201956 -3.43638611 104.95025635 C-2.50240957 106.64969158 -1.56954333 108.34973687 -0.63671875 110.04980469 C0.70158201 112.46209979 2.07074738 114.84873173 3.46875 117.2265625 C5 120 5 120 5 122 C3.68 122 2.36 122 1 122 C0.64550781 121.25621094 0.29101562 120.51242188 -0.07421875 119.74609375 C-3.83510372 112.03309237 -7.89001987 104.52572266 -12.125 97.0625 C-12.67397949 96.0938501 -13.22295898 95.1252002 -13.78857422 94.12719727 C-16.74265222 88.92976815 -19.72399977 83.74932619 -22.73046875 78.58203125 C-23.33036621 77.54232178 -23.93026367 76.5026123 -24.54833984 75.43139648 C-25.70231915 73.43213452 -26.86507486 71.43790623 -28.03759766 69.44946289 C-28.55757324 68.54574951 -29.07754883 67.64203613 -29.61328125 66.7109375 C-30.07516846 65.91993652 -30.53705566 65.12893555 -31.01293945 64.31396484 C-32.16727538 61.60785653 -32.3421997 59.91685873 -32 57 C-31.06054688 54.78125 -31.06054688 54.78125 -29.71875 52.5 C-29.2139209 51.62649902 -28.7090918 50.75299805 -28.18896484 49.85302734 C-27.63160645 48.91152832 -27.07424805 47.9700293 -26.5 47 C-25.31334464 44.95153911 -24.1285405 42.90200501 -22.9453125 40.8515625 C-22.31012695 39.75489258 -21.67494141 38.65822266 -21.02050781 37.52832031 C-17.37698173 31.19732012 -13.88798543 24.77898907 -10.375 18.375 C-9.34855195 16.5047425 -8.32173318 14.63469343 -7.29373169 12.76528931 C-6.39581566 11.13233238 -5.49936886 9.49856781 -4.60302734 7.86474609 C-3.11784735 5.21060323 -1.58030286 2.59838833 0 0 Z " fill="#F6B23B" transform="translate(110,5)"/>
<path d="M0 0 C1.32 0.33 2.64 0.66 4 1 C3.08203125 2.65234375 2.1640625 4.3046875 1.24609375 5.95703125 C0.64563232 7.03791016 0.0451709 8.11878906 -0.57348633 9.23242188 C-1.91034532 11.63879299 -3.24744871 14.04502809 -4.5847168 16.45117188 C-7.79757802 22.23253218 -11.00920861 28.01455708 -14.21388245 33.80046082 C-15.58351367 36.2731174 -16.95406223 38.74526494 -18.32467651 41.21737671 C-18.98132555 42.40236358 -19.63751728 43.58760398 -20.29324341 44.77310181 C-21.21126572 46.43270838 -22.13098602 48.09137536 -23.05078125 49.75 C-23.57325439 50.69359375 -24.09572754 51.6371875 -24.6340332 52.609375 C-25.68499329 54.44869603 -26.82492306 56.23738458 -28 58 C-27.65592275 61.48907635 -26.61073709 64.06810003 -24.83984375 67.0625 C-24.15535156 68.2369165 -24.15535156 68.2369165 -23.45703125 69.43505859 C-22.95558594 70.28148926 -22.45414063 71.12791992 -21.9375 72 C-16.66245923 81.05668355 -11.54507531 90.18909093 -6.5 99.375 C-5.47899682 101.23352968 -4.45792228 103.09201956 -3.43638611 104.95025635 C-2.50240957 106.64969158 -1.56954333 108.34973687 -0.63671875 110.04980469 C0.70158201 112.46209979 2.07074738 114.84873173 3.46875 117.2265625 C5 120 5 120 5 122 C3.68 122 2.36 122 1 122 C0.64550781 121.25621094 0.29101562 120.51242188 -0.07421875 119.74609375 C-3.83510372 112.03309237 -7.89001987 104.52572266 -12.125 97.0625 C-12.67397949 96.0938501 -13.22295898 95.1252002 -13.78857422 94.12719727 C-16.74265222 88.92976815 -19.72399977 83.74932619 -22.73046875 78.58203125 C-23.33036621 77.54232178 -23.93026367 76.5026123 -24.54833984 75.43139648 C-25.70231915 73.43213452 -26.86507486 71.43790623 -28.03759766 69.44946289 C-28.55757324 68.54574951 -29.07754883 67.64203613 -29.61328125 66.7109375 C-30.07516846 65.91993652 -30.53705566 65.12893555 -31.01293945 64.31396484 C-32.16727538 61.60785653 -32.3421997 59.91685873 -32 57 C-31.06054688 54.78125 -31.06054688 54.78125 -29.71875 52.5 C-29.2139209 51.62649902 -28.7090918 50.75299805 -28.18896484 49.85302734 C-27.63160645 48.91152832 -27.07424805 47.9700293 -26.5 47 C-25.31334464 44.95153911 -24.1285405 42.90200501 -22.9453125 40.8515625 C-22.31012695 39.75489258 -21.67494141 38.65822266 -21.02050781 37.52832031 C-17.37698173 31.19732012 -13.88798543 24.77898907 -10.375 18.375 C-9.34855195 16.5047425 -8.32173318 14.63469343 -7.29373169 12.76528931 C-6.39581566 11.13233238 -5.49936886 9.49856781 -4.60302734 7.86474609 C-3.11784735 5.21060323 -1.58030286 2.59838833 0 0 Z " fill="#F6B23B" transform="translate(105,5)"/>
<path d="M0 0 C1.32 0.33 2.64 0.66 4 1 C3.08203125 2.65234375 2.1640625 4.3046875 1.24609375 5.95703125 C0.64563232 7.03791016 0.0451709 8.11878906 -0.57348633 9.23242188 C-1.91034532 11.63879299 -3.24744871 14.04502809 -4.5847168 16.45117188 C-7.79757802 22.23253218 -11.00920861 28.01455708 -14.21388245 33.80046082 C-15.58351367 36.2731174 -16.95406223 38.74526494 -18.32467651 41.21737671 C-18.98132555 42.40236358 -19.63751728 43.58760398 -20.29324341 44.77310181 C-21.21126572 46.43270838 -22.13098602 48.09137536 -23.05078125 49.75 C-23.57325439 50.69359375 -24.09572754 51.6371875 -24.6340332 52.609375 C-25.68499329 54.44869603 -26.82492306 56.23738458 -28 58 C-27.65592275 61.48907635 -26.61073709 64.06810003 -24.83984375 67.0625 C-24.15535156 68.2369165 -24.15535156 68.2369165 -23.45703125 69.43505859 C-22.95558594 70.28148926 -22.45414063 71.12791992 -21.9375 72 C-16.66245923 81.05668355 -11.54507531 90.18909093 -6.5 99.375 C-5.47899682 101.23352968 -4.45792228 103.09201956 -3.43638611 104.95025635 C-2.50240957 106.64969158 -1.56954333 108.34973687 -0.63671875 110.04980469 C0.70158201 112.46209979 2.07074738 114.84873173 3.46875 117.2265625 C5 120 5 120 5 122 C3.68 122 2.36 122 1 122 C0.64550781 121.25621094 0.29101562 120.51242188 -0.07421875 119.74609375 C-3.83510372 112.03309237 -7.89001987 104.52572266 -12.125 97.0625 C-12.67397949 96.0938501 -13.22295898 95.1252002 -13.78857422 94.12719727 C-16.74265222 88.92976815 -19.72399977 83.74932619 -22.73046875 78.58203125 C-23.33036621 77.54232178 -23.93026367 76.5026123 -24.54833984 75.43139648 C-25.70231915 73.43213452 -26.86507486 71.43790623 -28.03759766 69.44946289 C-28.55757324 68.54574951 -29.07754883 67.64203613 -29.61328125 66.7109375 C-30.07516846 65.91993652 -30.53705566 65.12893555 -31.01293945 64.31396484 C-32.16727538 61.60785653 -32.3421997 59.91685873 -32 57 C-31.06054688 54.78125 -31.06054688 54.78125 -29.71875 52.5 C-29.2139209 51.62649902 -28.7090918 50.75299805 -28.18896484 49.85302734 C-27.63160645 48.91152832 -27.07424805 47.9700293 -26.5 47 C-25.31334464 44.95153911 -24.1285405 42.90200501 -22.9453125 40.8515625 C-22.31012695 39.75489258 -21.67494141 38.65822266 -21.02050781 37.52832031 C-17.37698173 31.19732012 -13.88798543 24.77898907 -10.375 18.375 C-9.34855195 16.5047425 -8.32173318 14.63469343 -7.29373169 12.76528931 C-6.39581566 11.13233238 -5.49936886 9.49856781 -4.60302734 7.86474609 C-3.11784735 5.21060323 -1.58030286 2.59838833 0 0 Z " fill="#F6B23B" transform="translate(100,5)"/>
<path d="M0 0 C1.32 0 2.64 0 4 0 C5.52451617 2.74412911 7.04902226 5.48826382 8.57348633 8.23242188 C9.91034532 10.63879299 11.24744871 13.04502809 12.5847168 15.45117188 C15.79757802 21.23253218 19.00920861 27.01455708 22.21388245 32.80046082 C23.58351367 35.2731174 24.95406223 37.74526494 26.32467651 40.21737671 C26.98132555 41.40236358 27.63751728 42.58760398 28.29324341 43.77310181 C29.21126572 45.43270838 30.13098602 47.09137536 31.05078125 48.75 C31.57325439 49.69359375 32.09572754 50.6371875 32.6340332 51.609375 C33.68499329 53.44869603 34.82492306 55.23738458 36 57 C36.43396071 60.90247875 35.68749725 63.1528431 33.71875 66.5 C33.21400146 67.37325928 32.70925293 68.24651855 32.18920898 69.14624023 C31.63177002 70.08798096 31.07433105 71.02972168 30.5 72 C29.31215437 74.05243269 28.12604156 76.10586894 26.94140625 78.16015625 C26.30605957 79.25730957 25.67071289 80.35446289 25.01611328 81.48486328 C21.76813343 87.12378632 18.63143589 92.82499435 15.49169922 98.5246582 C14.45755943 100.40110221 13.42038074 102.27584071 12.3828125 104.15039062 C9.12884424 110.04176783 5.9471037 115.94831377 3 122 C1.68 122 0.36 122 -1 122 C0.6112969 116.10808904 3.58698939 111.18122676 6.625 105.9375 C7.79187949 103.90060668 8.95716391 101.86279901 10.12109375 99.82421875 C10.7435498 98.73415527 11.36600586 97.6440918 12.00732422 96.52099609 C15.99899038 89.49338682 19.86598086 82.39517548 23.75201416 75.30880737 C24.43414034 74.06506543 25.11675452 72.82159097 25.7999115 71.57841492 C26.70456799 69.93212754 27.60758837 68.28494139 28.51049805 66.63769531 C30 64 30 64 32 61 C31.65592275 57.51092365 30.61073709 54.93189997 28.83984375 51.9375 C28.38343506 51.1544751 27.92702637 50.3714502 27.45678711 49.56469727 C26.95542236 48.71834717 26.45405762 47.87199707 25.9375 47 C24.852064 45.13533698 23.76886012 43.26937342 22.6875 41.40234375 C22.0996875 40.38769043 21.511875 39.37303711 20.90625 38.32763672 C17.34564972 32.11209089 13.89419756 25.83623068 10.4375 19.5625 C9.7401549 18.30012915 9.04280794 17.03775934 8.34545898 15.77539062 C7.68714426 14.58083549 7.02901414 13.38617861 6.37109375 12.19140625 C5.5037561 10.61661499 5.5037561 10.61661499 4.61889648 9.01000977 C3.01853464 6.03446141 1.49489699 3.02970696 0 0 Z " fill="#CD617E" transform="translate(20,5)"/>
<path d="M0 0 C1.32 0 2.64 0 4 0 C5.52451617 2.74412911 7.04902226 5.48826382 8.57348633 8.23242188 C9.91034532 10.63879299 11.24744871 13.04502809 12.5847168 15.45117188 C15.79757802 21.23253218 19.00920861 27.01455708 22.21388245 32.80046082 C23.58351367 35.2731174 24.95406223 37.74526494 26.32467651 40.21737671 C26.98132555 41.40236358 27.63751728 42.58760398 28.29324341 43.77310181 C29.21126572 45.43270838 30.13098602 47.09137536 31.05078125 48.75 C31.57325439 49.69359375 32.09572754 50.6371875 32.6340332 51.609375 C33.68499329 53.44869603 34.82492306 55.23738458 36 57 C36.43396071 60.90247875 35.68749725 63.1528431 33.71875 66.5 C33.21400146 67.37325928 32.70925293 68.24651855 32.18920898 69.14624023 C31.63177002 70.08798096 31.07433105 71.02972168 30.5 72 C29.31215437 74.05243269 28.12604156 76.10586894 26.94140625 78.16015625 C26.30605957 79.25730957 25.67071289 80.35446289 25.01611328 81.48486328 C21.76813343 87.12378632 18.63143589 92.82499435 15.49169922 98.5246582 C14.45755943 100.40110221 13.42038074 102.27584071 12.3828125 104.15039062 C9.12884424 110.04176783 5.9471037 115.94831377 3 122 C1.68 122 0.36 122 -1 122 C0.6112969 116.10808904 3.58698939 111.18122676 6.625 105.9375 C7.79187949 103.90060668 8.95716391 101.86279901 10.12109375 99.82421875 C10.7435498 98.73415527 11.36600586 97.6440918 12.00732422 96.52099609 C15.99899038 89.49338682 19.86598086 82.39517548 23.75201416 75.30880737 C24.43414034 74.06506543 25.11675452 72.82159097 25.7999115 71.57841492 C26.70456799 69.93212754 27.60758837 68.28494139 28.51049805 66.63769531 C30 64 30 64 32 61 C31.65592275 57.51092365 30.61073709 54.93189997 28.83984375 51.9375 C28.38343506 51.1544751 27.92702637 50.3714502 27.45678711 49.56469727 C26.95542236 48.71834717 26.45405762 47.87199707 25.9375 47 C24.852064 45.13533698 23.76886012 43.26937342 22.6875 41.40234375 C22.0996875 40.38769043 21.511875 39.37303711 20.90625 38.32763672 C17.34564972 32.11209089 13.89419756 25.83623068 10.4375 19.5625 C9.7401549 18.30012915 9.04280794 17.03775934 8.34545898 15.77539062 C7.68714426 14.58083549 7.02901414 13.38617861 6.37109375 12.19140625 C5.5037561 10.61661499 5.5037561 10.61661499 4.61889648 9.01000977 C3.01853464 6.03446141 1.49489699 3.02970696 0 0 Z " fill="#CD617E" transform="translate(15,5)"/>
<path d="M0 0 C1.32 0 2.64 0 4 0 C5.52451617 2.74412911 7.04902226 5.48826382 8.57348633 8.23242188 C9.91034532 10.63879299 11.24744871 13.04502809 12.5847168 15.45117188 C15.79757802 21.23253218 19.00920861 27.01455708 22.21388245 32.80046082 C23.58351367 35.2731174 24.95406223 37.74526494 26.32467651 40.21737671 C26.98132555 41.40236358 27.63751728 42.58760398 28.29324341 43.77310181 C29.21126572 45.43270838 30.13098602 47.09137536 31.05078125 48.75 C31.57325439 49.69359375 32.09572754 50.6371875 32.6340332 51.609375 C33.68499329 53.44869603 34.82492306 55.23738458 36 57 C36.43396071 60.90247875 35.68749725 63.1528431 33.71875 66.5 C33.21400146 67.37325928 32.70925293 68.24651855 32.18920898 69.14624023 C31.63177002 70.08798096 31.07433105 71.02972168 30.5 72 C29.31215437 74.05243269 28.12604156 76.10586894 26.94140625 78.16015625 C26.30605957 79.25730957 25.67071289 80.35446289 25.01611328 81.48486328 C21.76813343 87.12378632 18.63143589 92.82499435 15.49169922 98.5246582 C14.45755943 100.40110221 13.42038074 102.27584071 12.3828125 104.15039062 C9.12884424 110.04176783 5.9471037 115.94831377 3 122 C1.68 122 0.36 122 -1 122 C0.6112969 116.10808904 3.58698939 111.18122676 6.625 105.9375 C7.79187949 103.90060668 8.95716391 101.86279901 10.12109375 99.82421875 C10.7435498 98.73415527 11.36600586 97.6440918 12.00732422 96.52099609 C15.99899038 89.49338682 19.86598086 82.39517548 23.75201416 75.30880737 C24.43414034 74.06506543 25.11675452 72.82159097 25.7999115 71.57841492 C26.70456799 69.93212754 27.60758837 68.28494139 28.51049805 66.63769531 C30 64 30 64 32 61 C31.65592275 57.51092365 30.61073709 54.93189997 28.83984375 51.9375 C28.38343506 51.1544751 27.92702637 50.3714502 27.45678711 49.56469727 C26.95542236 48.71834717 26.45405762 47.87199707 25.9375 47 C24.852064 45.13533698 23.76886012 43.26937342 22.6875 41.40234375 C22.0996875 40.38769043 21.511875 39.37303711 20.90625 38.32763672 C17.34564972 32.11209089 13.89419756 25.83623068 10.4375 19.5625 C9.7401549 18.30012915 9.04280794 17.03775934 8.34545898 15.77539062 C7.68714426 14.58083549 7.02901414 13.38617861 6.37109375 12.19140625 C5.5037561 10.61661499 5.5037561 10.61661499 4.61889648 9.01000977 C3.01853464 6.03446141 1.49489699 3.02970696 0 0 Z " fill="#CD617E" transform="translate(10,5)"/>
<path d="M0 0 C1.32 0 2.64 0 4 0 C5.52451617 2.74412911 7.04902226 5.48826382 8.57348633 8.23242188 C9.91034532 10.63879299 11.24744871 13.04502809 12.5847168 15.45117188 C15.79757802 21.23253218 19.00920861 27.01455708 22.21388245 32.80046082 C23.58351367 35.2731174 24.95406223 37.74526494 26.32467651 40.21737671 C26.98132555 41.40236358 27.63751728 42.58760398 28.29324341 43.77310181 C29.21126572 45.43270838 30.13098602 47.09137536 31.05078125 48.75 C31.57325439 49.69359375 32.09572754 50.6371875 32.6340332 51.609375 C33.68499329 53.44869603 34.82492306 55.23738458 36 57 C36.43396071 60.90247875 35.68749725 63.1528431 33.71875 66.5 C33.21400146 67.37325928 32.70925293 68.24651855 32.18920898 69.14624023 C31.63177002 70.08798096 31.07433105 71.02972168 30.5 72 C29.31215437 74.05243269 28.12604156 76.10586894 26.94140625 78.16015625 C26.30605957 79.25730957 25.67071289 80.35446289 25.01611328 81.48486328 C21.76813343 87.12378632 18.63143589 92.82499435 15.49169922 98.5246582 C14.45755943 100.40110221 13.42038074 102.27584071 12.3828125 104.15039062 C9.12884424 110.04176783 5.9471037 115.94831377 3 122 C1.68 122 0.36 122 -1 122 C0.6112969 116.10808904 3.58698939 111.18122676 6.625 105.9375 C7.79187949 103.90060668 8.95716391 101.86279901 10.12109375 99.82421875 C10.7435498 98.73415527 11.36600586 97.6440918 12.00732422 96.52099609 C15.99899038 89.49338682 19.86598086 82.39517548 23.75201416 75.30880737 C24.43414034 74.06506543 25.11675452 72.82159097 25.7999115 71.57841492 C26.70456799 69.93212754 27.60758837 68.28494139 28.51049805 66.63769531 C30 64 30 64 32 61 C31.65592275 57.51092365 30.61073709 54.93189997 28.83984375 51.9375 C28.38343506 51.1544751 27.92702637 50.3714502 27.45678711 49.56469727 C26.95542236 48.71834717 26.45405762 47.87199707 25.9375 47 C24.852064 45.13533698 23.76886012 43.26937342 22.6875 41.40234375 C22.0996875 40.38769043 21.511875 39.37303711 20.90625 38.32763672 C17.34564972 32.11209089 13.89419756 25.83623068 10.4375 19.5625 C9.7401549 18.30012915 9.04280794 17.03775934 8.34545898 15.77539062 C7.68714426 14.58083549 7.02901414 13.38617861 6.37109375 12.19140625 C5.5037561 10.61661499 5.5037561 10.61661499 4.61889648 9.01000977 C3.01853464 6.03446141 1.49489699 3.02970696 0 0 Z " fill="#CD617E" transform="translate(5,5)"/>
<path d="M0 0 C1.32 0 2.64 0 4 0 C5.52451617 2.74412911 7.04902226 5.48826382 8.57348633 8.23242188 C9.91034532 10.63879299 11.24744871 13.04502809 12.5847168 15.45117188 C15.79757802 21.23253218 19.00920861 27.01455708 22.21388245 32.80046082 C23.58351367 35.2731174 24.95406223 37.74526494 26.32467651 40.21737671 C26.98132555 41.40236358 27.63751728 42.58760398 28.29324341 43.77310181 C29.21126572 45.43270838 30.13098602 47.09137536 31.05078125 48.75 C31.57325439 49.69359375 32.09572754 50.6371875 32.6340332 51.609375 C33.68499329 53.44869603 34.82492306 55.23738458 36 57 C36.43396071 60.90247875 35.68749725 63.1528431 33.71875 66.5 C33.21400146 67.37325928 32.70925293 68.24651855 32.18920898 69.14624023 C31.63177002 70.08798096 31.07433105 71.02972168 30.5 72 C29.31215437 74.05243269 28.12604156 76.10586894 26.94140625 78.16015625 C26.30605957 79.25730957 25.67071289 80.35446289 25.01611328 81.48486328 C21.76813343 87.12378632 18.63143589 92.82499435 15.49169922 98.5246582 C14.45755943 100.40110221 13.42038074 102.27584071 12.3828125 104.15039062 C9.12884424 110.04176783 5.9471037 115.94831377 3 122 C2.01 122 1.02 122 0 122 C0.40108111 115.75753247 3.46822457 111.19681446 6.5625 105.9375 C7.73868357 103.90072288 8.91307282 101.86290884 10.0859375 99.82421875 C10.71467773 98.73415527 11.34341797 97.6440918 11.99121094 96.52099609 C16.01170132 89.5068455 19.86529597 82.3977526 23.7517395 75.30880737 C24.75403469 73.48134486 25.75783898 71.65471737 26.76171875 69.828125 C27.33881592 68.7752832 27.91591309 67.72244141 28.51049805 66.63769531 C30 64 30 64 32 61 C31.65592275 57.51092365 30.61073709 54.93189997 28.83984375 51.9375 C28.38343506 51.1544751 27.92702637 50.3714502 27.45678711 49.56469727 C26.95542236 48.71834717 26.45405762 47.87199707 25.9375 47 C24.852064 45.13533698 23.76886012 43.26937342 22.6875 41.40234375 C22.0996875 40.38769043 21.511875 39.37303711 20.90625 38.32763672 C17.34564972 32.11209089 13.89419756 25.83623068 10.4375 19.5625 C9.7401549 18.30012915 9.04280794 17.03775934 8.34545898 15.77539062 C7.68714426 14.58083549 7.02901414 13.38617861 6.37109375 12.19140625 C5.5037561 10.61661499 5.5037561 10.61661499 4.61889648 9.01000977 C3.01853464 6.03446141 1.49489699 3.02970696 0 0 Z " fill="#CD617E" transform="translate(0,5)"/>
</svg>
